<?xml version="1.0" encoding="utf-8"?>
<!-- Generator: Adobe Illustrator 22.1.0, SVG Export Plug-In . SVG Version: 6.00 Build 0)  -->
<svg version="1.1" id="图层_1" xmlns="http://www.w3.org/2000/svg" xmlns:xlink="http://www.w3.org/1999/xlink" x="0px" y="0px"
	 viewBox="0 0 595.3 841.9" style="enable-background:new 0 0 595.3 841.9;" xml:space="preserve">
<style type="text/css">
	.st0{fill:#CBC9C1;}
	.st1{fill:#E60013;}
	.st2{fill:#FFFFFF;}
</style>
<ellipse class="st0" cx="175.7" cy="595.5" rx="102.3" ry="100.4"/>
<rect x="112.1" y="134.6" class="st1" width="331.5" height="331.5"/>
<path class="st2" d="M384.7,185.2c0.5-6.9-4.7-12.9-11.6-13.3c-6.9-0.5-12.9,4.7-13.3,11.6c-1.7,25.7-15.7,47.9-36,61.2
	c-12.9-7.2-27.7-11.3-43.5-11.3c-15.8,0-30.6,4.1-43.5,11.3c-20.3-13.3-34.2-35.5-36-61.2c-0.5-6.9-6.4-12.1-13.3-11.6
	c-6.9,0.5-12.1,6.4-11.6,13.3c2.1,30.7,17.5,57.6,40.3,75.4c-15.5,16.1-25.1,37.9-25.1,62c0,49.2,40,89.2,89.2,89.2
	c49.2,0,89.2-40,89.2-89.2c0-24.1-9.6-45.9-25.1-62C367.3,242.9,382.6,215.9,384.7,185.2z M344.6,322.6c0,35.4-28.8,64.2-64.2,64.2
	c-35.4,0-64.2-28.8-64.2-64.2c0-19.5,8.7-36.9,22.4-48.7c11.2-9.7,25.9-15.5,41.8-15.5c16,0,30.6,5.9,41.8,15.5
	C335.9,285.7,344.6,303.1,344.6,322.6z"/>
<g>
	<g>
		<path class="st2" d="M225,554.2h-40.5v110.4h-17.6V554.2h-40.5V537H225V554.2z"/>
	</g>
	
		<rect x="140.6" y="580.2" transform="matrix(0.9598 -0.2805 0.2805 0.9598 -157.9711 73.0896)" class="st2" width="71.4" height="16.3"/>
	
		<rect x="140.6" y="607.9" transform="matrix(0.9598 -0.2806 0.2806 0.9598 -165.7741 74.2221)" class="st2" width="71.4" height="16.3"/>
</g>
<g>
	<path class="st1" d="M-206.8,569.8c-12.9-7.2-27.7-11.3-43.5-11.3c-15.8,0-30.6,4.1-43.5,11.3c12.5,8.2,27.5,13,43.5,13
		C-234.3,582.7-219.3,578-206.8,569.8z"/>
	<path class="st1" d="M-186,647.7c0,35.4-28.8,64.2-64.2,64.2c-35.4,0-64.2-28.8-64.2-64.2c0-19.5,8.7-36.9,22.4-48.7
		c-8-3.5-15.5-8-22.3-13.3c-15.5,16.1-25.1,37.9-25.1,62c0,49.2,40,89.2,89.2,89.2c49.2,0,89.2-40,89.2-89.2
		c0-24.1-9.6-45.9-25.1-62c-6.8,5.3-14.3,9.8-22.3,13.3C-194.7,610.8-186,628.2-186,647.7z"/>
	<path class="st1" d="M-293.7,569.8c-20.3-13.3-34.2-35.5-36-61.2c-0.5-6.9-6.4-12.1-13.3-11.6c-6.9,0.5-12.1,6.4-11.6,13.3
		c2.1,30.7,17.5,57.6,40.3,75.4C-308.3,579.4-301.4,574-293.7,569.8z"/>
	<path class="st1" d="M-145.9,510.3c0.5-6.9-4.7-12.9-11.6-13.3c-6.9-0.5-12.9,4.7-13.3,11.6c-1.7,25.7-15.7,47.9-36,61.2
		c7.7,4.3,14.6,9.7,20.7,15.9C-163.3,567.9-148,541-145.9,510.3z"/>
	<path class="st1" d="M-206.8,569.8c-12.5,8.2-27.5,13-43.5,13c-16,0-30.9-4.8-43.5-13c-7.7,4.3-14.6,9.7-20.7,15.9
		c6.8,5.3,14.3,9.8,22.3,13.3c11.2-9.7,25.9-15.5,41.8-15.5c16,0,30.6,5.9,41.8,15.5c8-3.5,15.5-8,22.3-13.3
		C-192.2,579.4-199.1,574-206.8,569.8z"/>
</g>
<path class="st0" d="M530.9,595.5c0,55.4-45.8,100.4-102.3,100.4c-56.5,0-102.3-44.9-102.3-100.4c0-55.4,45.8-100.4,102.3-100.4
	C485.1,495.2,530.9,540.1,530.9,595.5z"/>
<g>
	<g>
		<path class="st2" d="M477.9,554.2h-40.5v110.4h-17.6V554.2h-40.5V537h98.6V554.2z"/>
	</g>
	<g>
		<line class="st2" x1="399.4" y1="589.4" x2="457.8" y2="589.4"/>
		<rect x="399.4" y="582.3" class="st2" width="58.5" height="14.2"/>
	</g>
	<g>
		<line class="st2" x1="399.4" y1="616.1" x2="457.8" y2="616.1"/>
		<rect x="399.4" y="609" class="st2" width="58.5" height="14.2"/>
	</g>
</g>
</svg>
